HIERARCHY
ROOT Hips
{
  OFFSET 0 0 0
  CHANNELS 6 Xposition Yposition Zposition Zrotation Xrotation Yrotation
  JOINT Spine
  {
    OFFSET 0 10.1816 0.131521
    CHANNELS 3 Zrotation Xrotation Yrotation
    JOINT Spine1
    {
      OFFSET 0 10.0835 -1.0008
      CHANNELS 3 Zrotation Xrotation Yrotation
      JOINT Spine2
      {
        OFFSET 0 9.10001 -1.37342
        CHANNELS 3 Zrotation Xrotation Yrotation
        JOINT Neck
        {
          OFFSET 0 16.6717 -2.51617
          CHANNELS 3 Zrotation Xrotation Yrotation
          JOINT Head
          {
            OFFSET 0 9.61788 1.68501
            CHANNELS 3 Zrotation Xrotation Yrotation
            End Site
            {
              OFFSET 0 0 0
            }
          }
        }
        JOINT LeftShoulder
        {
          OFFSET 4.57045 10.946 -2.62799
          CHANNELS 3 Zrotation Xrotation Yrotation
          JOINT LeftArm
          {
            OFFSET 10.5924 -0.524583 -2.23212
            CHANNELS 3 Zrotation Xrotation Yrotation
            JOINT LeftForeArm
            {
              OFFSET 27.8415 -8.94286e-05 3.74589e-05
              CHANNELS 3 Zrotation Xrotation Yrotation
              JOINT LeftHand
              {
                OFFSET 28.3288 -1.74407e-05 3.78045e-05
                CHANNELS 3 Zrotation Xrotation Yrotation
                End Site
                {
                  OFFSET 0 0 0
                }
              }
            }
          }
        }
        JOINT RightShoulder
        {
          OFFSET -4.56997 10.9462 -2.62802
          CHANNELS 3 Zrotation Xrotation Yrotation
          JOINT RightArm
          {
            OFFSET -10.5928 -0.524798 -2.2321
            CHANNELS 3 Zrotation Xrotation Yrotation
            JOINT RightForeArm
            {
              OFFSET -27.8415 -3.30792e-05 1.16763e-05
              CHANNELS 3 Zrotation Xrotation Yrotation
              JOINT RightHand
              {
                OFFSET -28.3288 0 5.5816e-05
                CHANNELS 3 Zrotation Xrotation Yrotation
                End Site
                {
                  OFFSET 0 0 0
                }
              }
            }
          }
        }
      }
    }
  }
  JOINT LeftUpLeg
  {
    OFFSET 8.20778 -6.75171 -1.59956
    CHANNELS 3 Zrotation Xrotation Yrotation
    JOINT LeftLeg
    {
      OFFSET 0 -44.3705 0.284643
      CHANNELS 3 Zrotation Xrotation Yrotation
      JOINT LeftFoot
      {
        OFFSET 0 -44.4279 -2.98219
        CHANNELS 3 Zrotation Xrotation Yrotation
        JOINT LeftToeBase
        {
          OFFSET 0 -8.72867 10.7106
          CHANNELS 3 Zrotation Xrotation Yrotation
          End Site
          {
            OFFSET 0 0 0
          }
        }
      }
    }
  }
  JOINT RightUpLeg
  {
    OFFSET -8.2078 -6.75166 -1.59956
    CHANNELS 3 Zrotation Xrotation Yrotation
    JOINT RightLeg
    {
      OFFSET 0 -44.3705 0.286156
      CHANNELS 3 Zrotation Xrotation Yrotation
      JOINT RightFoot
      {
        OFFSET 0 -44.4277 -2.98379
        CHANNELS 3 Zrotation Xrotation Yrotation
        JOINT RightToeBase
        {
          OFFSET 0 -8.72867 10.7106
          CHANNELS 3 Zrotation Xrotation Yrotation
          End Site
          {
            OFFSET 0 0 0
          }
        }
      }
    }
  }
}
MOTION
Frames:	14
Frame Time:	0.0333333
-1.18455 92.6058 1.21196 -0.175425 -3.27353 -41.7891 -0.787375 15.307 4.76664 -0.501246 1.38341 0.64029 -0.506428 1.38634 0.625906 -5.04174 5.59479 2.28411 -9.88277 -0.272694 7.06886 -8.9951 2.11505 3.52649 -54.7615 1.40805 -34.5144 -0.000213623 3.97493e-015 -124.506 9.80653 12.5006 -0.0626338 -7.39127 0.13403 3.45861 56.1128 20.2713 48.6264 -1.13137e-006 5.76599e-006 112.202 -11.1158 -13.5961 15.6139 21.1139 -27.618 19.7728 7.56165 40.92 -13.5277 -16.9263 -4.19875 -2.36991 -0.00172415 -4.64122 -0.00177832 -18.3783 -9.1934 -16.0171 -1.44 47.7385 -1.76599 17.147 -30.2459 3.76479 -7.66984e-005 -0.689204 -0.0064943 
-0.929989 92.2539 1.94518 -0.311448 -3.45999 -42.4119 -0.62528 15.882 4.60159 -0.499183 1.30044 0.619055 -0.504994 1.30381 0.603888 -5.00593 5.51827 2.26772 -10.3056 -0.377713 7.16963 -9.08549 2.15629 3.56809 -55.0409 2.21057 -33.8398 -0.000213623 -3.22559e-014 -123.852 9.04173 13.2114 -0.0449647 -7.45127 0.081798 3.33895 56.3077 20.9675 48.0505 -1.10802e-006 5.70844e-006 111.969 -11.1689 -13.1869 15.8964 21.3327 -28.6391 19.7234 7.84619 43.902 -14.0044 -16.5535 -3.64675 -1.88584 -2.80966e-007 -6.24058 -0.00159576 -19.1063 -9.14547 -16.1758 -1.82929 48.233 -0.496073 17.5041 -30.5274 3.89299 -5.52029e-005 -0.499568 -0.00649407 
-0.635223 91.9035 2.77291 -0.350125 -3.59225 -43.1681 -0.304917 16.4169 4.42896 -0.542509 1.19813 0.603378 -0.549626 1.2024 0.585502 -5.09453 5.47286 2.30179 -10.8953 -0.404199 7.40152 -9.1841 2.20756 3.5965 -55.4574 2.7449 -33.0008 -0.000213623 -1.81387e-014 -123.972 8.69049 13.4701 -0.626095 -7.62091 -0.0390094 3.23815 56.2792 21.5648 47.8561 -1.08314e-006 5.64638e-006 111.718 -11.2785 -12.9684 16.1992 21.9268 -30.152 19.9967 8.03778 47.4827 -14.5404 -15.9982 -1.03347 -2.11656 0.0282322 -10.3884 0.00398761 -20.0074 -9.1958 -16.5412 -2.32549 48.6455 1.146 17.8104 -30.7555 4.01792 -5.48714e-005 -0.496643 -0.00649407 
-0.260761 91.4258 3.7916 -0.232485 -3.68733 -44.0594 0.0484233 16.9153 4.2734 -0.607938 1.03477 0.589911 -0.616822 1.03986 0.568967 -5.31484 5.40211 2.39584 -11.7234 -0.364574 7.82867 -9.29431 2.26698 3.60083 -55.893 2.86482 -32.0938 -0.000213623 3.98834e-015 -124.639 8.92916 13.1714 -1.87856 -7.90901 -0.224821 3.18032 55.8239 22.0778 48.1805 -1.03147e-006 5.5149e-006 111.188 -11.4372 -12.8754 16.3884 23.5033 -32.304 20.6823 8.29248 51.9257 -15.4633 -19.8919 3.64928 -3.07607 4.39826 -14.2628 0.654167 -21.3084 -9.46885 -17.1743 -2.94843 49.2368 3.36012 18.1265 -31.0738 4.13562 -6.04268e-005 -0.545655 -0.00649412 
0.195806 90.8418 5.05827 0.0637114 -3.79618 -45.14 0.219287 17.4398 4.17328 -0.633334 0.801121 0.576093 -0.644313 0.806474 0.553102 -5.60905 5.20538 2.53189 -12.7508 -0.543879 8.42792 -9.38199 2.31836 3.5918 -56.161 2.68203 -31.3439 -0.000213623 4.02913e-015 -125.045 9.60985 12.6459 -3.35262 -8.26156 -0.430038 3.12604 54.8846 22.7062 48.8095 -9.69877e-007 5.35328e-006 110.538 -11.5116 -12.6659 16.5002 25.4044 -34.6039 21.7199 8.9109 56.956 -16.4196 -21.6384 6.56997 -5.68617 7.09712 -12.4873 0.95625 -23.0259 -9.91715 -18.0078 -3.90864 49.8538 5.61104 18.9642 -31.1955 4.93354 -6.59495e-005 -0.594378 -0.00649417 
0.734569 90.1627 6.65374 0.46414 -3.93102 -46.5609 0.231298 17.8905 4.03763 -0.616759 0.597907 0.552147 -0.629001 0.602958 0.528758 -5.99747 4.7592 2.76338 -13.9955 -1.04442 9.42036 -9.3603 2.28688 3.64555 -56.1389 2.0268 -30.8375 -0.000213623 1.8541e-014 -124.832 10.0956 12.3735 -4.35685 -8.73322 -0.678894 2.99367 53.6733 23.7559 49.5666 -9.16679e-007 5.20908e-006 109.961 -11.5494 -12.3515 16.603 27.6532 -36.1854 23.0548 9.50018 60.8975 -17.1775 -21.837 8.65333 -9.17069 6.79217 -10.0246 0.732595 -25.0346 -10.5156 -18.8465 -5.38641 50.3082 7.72827 20.5799 -30.9198 6.60396 -7.30095e-005 -0.656661 -0.00649425 
1.31597 89.4807 8.62979 0.837528 -4.01857 -48.274 0.11695 18.1953 3.67102 -0.527056 0.463569 0.492761 -0.538651 0.467394 0.471459 -6.43775 4.04458 3.118 -15.3999 -1.77227 10.9665 -9.13199 2.122 3.80556 -55.8767 0.51848 -30.5461 -0.000213623 -1.82143e-014 -124.133 9.89785 12.39 -4.49432 -9.19368 -0.896893 2.72635 52.3285 25.2306 50.3445 -8.7245e-007 5.08565e-006 109.469 -11.6639 -11.984 16.6371 29.9374 -36.5231 24.5181 9.96529 62.6318 -17.7205 -20.2006 8.24722 -11.316 4.35497 -6.43527 0.29924 -27.0166 -10.9634 -19.4741 -7.16917 50.1032 10.2131 22.4817 -30.365 8.13364 -9.19616e-005 -0.82385 -0.0064945 
1.88621 88.9136 10.9932 1.13714 -3.89384 -49.9425 -0.184182 18.1632 2.87222 -0.275755 0.39165 0.363945 -0.28398 0.393575 0.350521 -6.82533 3.19757 3.56006 -16.791 -2.54268 12.9762 -8.70726 1.86745 4.02232 -55.3027 -2.14417 -30.6442 -0.000213623 -3.85226e-015 -123.299 8.9462 12.1781 -3.7979 -9.35785 -0.958377 2.25823 50.8095 26.951 50.7629 -8.4143e-007 4.99704e-006 109.116 -11.7821 -11.5788 16.5092 31.9533 -35.695 25.974 9.91342 61.2874 -17.6297 -17.4642 5.52461 -9.40138 -7.65268e-006 -2.08365 -4.89864e-006 -28.6332 -10.8239 -19.7858 -8.7902 48.6704 12.5661 24.5871 -29.4899 9.17452 -0.000214691 -1.90606 -0.00649742 
2.4131 88.4933 13.8267 1.43182 -3.4113 -50.9208 -0.610137 17.5073 1.62521 0.142388 0.410841 0.165806 0.139115 0.412473 0.165436 -7.08342 2.40504 3.99321 -17.9775 -3.17792 15.0304 -8.22501 1.61948 4.18449 -54.2715 -5.72807 -31.4854 -0.000213623 3.7881e-015 -122.675 7.81488 11.7542 -2.71144 -9.18478 -0.883283 1.44215 49.1538 28.7744 50.1918 -8.4533e-007 5.00828e-006 109.161 -11.752 -11.1555 16.2218 33.5056 -34.3974 27.3857 8.99342 56.8399 -16.3734 -13.5511 2.76383 -3.89967 -0.567288 -1.88067 -0.0153675 -29.6457 -9.72733 -19.8642 -9.82951 45.8528 13.7504 27.0287 -28.2623 9.70718 -0.000421187 -3.70803 -0.00650745 
2.92816 88.0829 17.3377 1.57852 -2.44341 -50.6831 -0.766957 16.0645 0.00945222 0.641395 0.562322 -0.0751164 0.64204 0.566828 -0.0624361 -7.16478 1.79676 4.31439 -18.7593 -3.50364 16.638 -7.77131 1.39453 4.24037 -52.8358 -9.58634 -33.2355 -0.000213623 1.74069e-014 -122.428 7.68214 11.4221 -1.43508 -8.76007 -0.746344 0.132983 47.5318 30.4281 48.1202 -9.22573e-007 5.22528e-006 110.026 -11.4104 -10.6478 15.612 34.594 -33.3108 28.7511 7.63168 50.0437 -12.4905 -9.24893 2.42766 0.149219 -1.49826 -1.6488 -0.0203573 -30.2054 -8.48 -19.6173 -10.7011 43.7181 14.7846 28.075 -25.2116 8.33695 -9.50941e-007 -5.09705 -7.70469e-006 
3.43897 87.5948 21.5784 1.23982 -1.05843 -48.6979 -0.54529 14.1717 -1.76439 1.21787 0.742751 -0.330921 1.2206 0.752567 -0.307095 -6.98868 1.4247 4.43427 -18.8178 -3.19391 17.3761 -7.35287 1.14446 4.26692 -51.2452 -12.5456 -35.5967 -0.000213623 3.77119e-015 -122.511 9.09088 10.9168 -0.0400076 -7.9978 -0.562678 -1.62813 45.9434 31.4476 44.433 -1.1266e-006 5.75428e-006 112.155 -10.8131 -9.91686 14.4793 35.1121 -33.2428 29.7544 6.87312 43.17 -8.37836 -7.61818 3.91431 0.7466 -2.76037 -1.84066 -0.0111629 -29.8375 -6.42036 -18.69 -11.4341 42.0405 15.3237 28.8112 -20.384 5.58108 1.38974 -8.0046 0.174405 
3.9664 87.119 26.3875 0.326915 0.323276 -44.2477 -0.433583 12.5192 -3.22058 1.97193 0.70802 -0.554423 1.97709 0.7254 -0.517361 -6.39139 1.29012 4.21761 -17.589 -1.72859 16.604 -7.03581 0.94768 4.2571 -49.4711 -12.8404 -38.1103 -0.000213623 -3.78694e-015 -122.663 11.1994 10.2677 0.890492 -6.67472 -0.279511 -3.6175 44.0065 31.3017 39.3094 -1.51404e-006 6.62666e-006 115.74 -10.1247 -8.69434 13.1406 35.1595 -35.4913 29.8008 7.22157 40.3287 -8.15246 -14.0107 4.02286 0.17856 -0.000126727 -1.98176 -0.0038639 -28.3802 -3.26861 -16.7413 -11.9858 41.3295 14.2584 29.2117 -12.4105 2.8066 5.18973 -16.028 0.792029 
4.47778 86.7854 31.2992 -0.641948 1.02508 -36.4651 -1.33461 11.6606 -3.39548 2.89891 0.363216 -0.623969 2.90718 0.388812 -0.568074 -5.15385 1.30661 3.38664 -14.082 1.09331 12.8953 -6.93346 1.01098 3.88182 -46.9447 -8.67176 -40.918 -0.000213623 4.4663e-014 -122.401 13.1359 9.8343 0.54656 -4.87237 0.0749302 -5.35629 41.8401 29.0229 33.0774 -2.1191e-006 7.75753e-006 120.557 -8.73823 -6.07087 12.4224 32.3993 -40.1158 27.3565 8.36641 41.5079 -10.5989 -18.8898 4.08907 -2.28701 -1.07491e-005 -1.39734 -0.00673441 -25.8586 0.818005 -14.1193 -12.9181 43.2724 12.4505 27.8516 -7.07415 0.351289 10.4764 -15.8256 1.53227 
4.86162 86.6571 35.6536 -0.862406 0.740789 -25.3498 -3.54679 11.7102 -1.49823 3.68901 0.0028404 -0.425166 3.69623 0.0278022 -0.349351 -3.42679 1.20744 1.79849 -7.52163 3.88588 5.06807 -7.05421 1.41865 2.91184 -43.0144 -0.753894 -44.8915 -0.000213623 -3.66463e-015 -121.485 14.9333 9.24578 -0.620044 -3.60641 0.373742 -5.94542 40.3552 23.6137 26.7673 -2.87719e-006 8.91777e-006 125.763 -5.89596 -1.28961 11.5565 24.8738 -45.9566 21.0088 10.1268 45.1986 -15.1218 -15.6891 1.92012 -5.87622 -3.52019e-005 -1.77961 -0.00823172 -22.4525 5.37591 -12.4249 -13.8591 47.155 10.0338 25.1431 -3.25412 -0.499066 9.14098 -13.2476 1.285 
